<svg width="381" height="380" viewBox="0 0 381 380" fill="none" xmlns="http://www.w3.org/2000/svg">
<path d="M83.4173 304.001C92.1584 295.329 96.8001 284.14 97.4291 272.778L97.4725 272.821C100.054 227.31 117.774 197.851 184.689 201.596L184.602 201.51C203.928 202.607 223.644 195.915 238.415 181.239C265.897 153.954 265.897 109.755 238.415 82.4702C210.934 55.2065 166.36 55.2065 138.857 82.4702C124.086 97.1242 117.319 116.663 118.425 135.857L118.338 135.771C122.134 202.198 92.4621 219.779 46.5657 222.339L46.6091 222.382C35.1567 223.006 23.8778 227.611 15.1367 236.283C-3.71206 254.983 -3.71206 285.302 15.1367 304.001C34.0071 322.701 64.5686 322.701 83.4173 304.001Z" fill="#215FF6" style="fill:#215FF6;fill:color(display-p3 0.1294 0.3725 0.9647);fill-opacity:1;"/>
<path d="M380.52 317.564C380.52 250.989 326.133 197.013 259.026 197.013V257.289V317.564H380.52Z" fill="#215FF6" style="fill:#215FF6;fill:color(display-p3 0.1294 0.3725 0.9647);fill-opacity:1;"/>
</svg>
